<svg xmlns="http://www.w3.org/2000/svg" version="1.1" xmlns:xlink="http://www.w3.org/1999/xlink" xmlns:svgjs="http://svgjs.dev/svgjs" width="1438" height="500" preserveAspectRatio="none" viewBox="0 0 1438 500"><g mask="url(&quot;#SvgjsMask3955&quot;)" fill="none"><rect width="1438" height="500" x="0" y="0" fill="url(&quot;#SvgjsLinearGradient3956&quot;)"></rect><path d="M3 500L503 0L701 0L201 500z" fill="url(&quot;#SvgjsLinearGradient3957&quot;)"></path><path d="M342.36 500L842.36 0L1128.8600000000001 0L628.86 500z" fill="url(&quot;#SvgjsLinearGradient3957&quot;)"></path><path d="M655.72 500L1155.72 0L1371.72 0L871.72 500z" fill="url(&quot;#SvgjsLinearGradient3957&quot;)"></path><path d="M1399 500L899 0L570.5 0L1070.5 500z" fill="url(&quot;#SvgjsLinearGradient3958&quot;)"></path><path d="M1074.6399999999999 500L574.6399999999999 0L192.13999999999987 0L692.1399999999999 500z" fill="url(&quot;#SvgjsLinearGradient3958&quot;)"></path><path d="M749.28 500L249.27999999999997 0L184.77999999999997 0L684.78 500z" fill="url(&quot;#SvgjsLinearGradient3958&quot;)"></path><path d="M1170.2187930413866 500L1438 232.21879304138656L1438 500z" fill="url(&quot;#SvgjsLinearGradient3957&quot;)"></path><path d="M0 500L267.78120695861344 500L 0 232.21879304138656z" fill="url(&quot;#SvgjsLinearGradient3958&quot;)"></path></g><defs><mask id="SvgjsMask3955"><rect width="1438" height="500" fill="#ffffff"></rect></mask><linearGradient x1="16.31%" y1="146.9%" x2="83.69%" y2="-46.9%" gradientUnits="userSpaceOnUse" id="SvgjsLinearGradient3956"><stop stop-color="rgba(151, 154, 195, 0.96)" offset="0.11"></stop><stop stop-color="rgba(33, 161, 205, 0.8)" offset="0.86"></stop></linearGradient><linearGradient x1="0%" y1="100%" x2="100%" y2="0%" id="SvgjsLinearGradient3957"><stop stop-color="rgba(115, 123, 142, 0.2)" offset="0"></stop><stop stop-opacity="0" stop-color="rgba(115, 123, 142, 0.2)" offset="0.66"></stop></linearGradient><linearGradient x1="100%" y1="100%" x2="0%" y2="0%" id="SvgjsLinearGradient3958"><stop stop-color="rgba(115, 123, 142, 0.2)" offset="0"></stop><stop stop-opacity="0" stop-color="rgba(115, 123, 142, 0.2)" offset="0.66"></stop></linearGradient></defs></svg>